# xmcd CD database file
#
# Track frame offsets:
#	150
#	10268
#	25113
#	35160
#	50789
#	70181
#	81145
#	98657
#	108135
#	125155
#	132462
#	149471
#	157785
#	170661
#	179355
#	187312
#	199200
#	209903
#	226211
#
# Disc length: 3233 seconds
#
# Revision: 2
# Processed by: cddbd v1.5.2PL0 Copyright (c) Steve Scherf et al.
# Submitted via: CDex 1.70beta3
#
DISCID=1c0c9f13
DTITLE=IOSYS - 東方永雀峰
DYEAR=2007
DGENRE=Pop
TTITLE0=日は沈み、夜が忍び寄る～Eastern Night
TTITLE1=蛍火、妖しく輝いて
TTITLE2=蛍火、妖しく輝いて
TTITLE3=迷い道、迫る闇を見通す能力を
TTITLE4=迷い道、迫る闇を見通す能力を
TTITLE5=おしえてほしいよ☆けーねせんせい
TTITLE6=おしえてほしいよ☆けーねせんせい
TTITLE7=ねこ巫女れいむ
TTITLE8=ねこ巫女れいむ
TTITLE9=歪んだ廊下と月の狂気
TTITLE10=歪んだ廊下と月の狂気
TTITLE11=ところが、私には通用しない
TTITLE12=ところが、私には通用しない
TTITLE13=蓬菜の玉、どこまでも美しく
TTITLE14=蓬菜の玉、どこまでも美しく
TTITLE15=夜明けが……空を赤く染めてゆく
TTITLE16=夜明けが……空を赤く染めてゆく
TTITLE17=闇光
TTITLE18=魔理沙に大変な役でハコにされました
EXTD=YEAR: 2007
EXTT0=永夜抄～Eastern Night
EXTT1=幻視の夜～Ghostly Eyes
EXTT2=蠢々秋月～Mooned Insect
EXTT3=夜雀の歌声～Night Bird
EXTT4=もう歌しか聞こえない
EXTT5=懐かしき東方の血～Old World
EXTT6=プレインエイジア
EXTT7=永夜の報い～Imperishable Night
EXTT8=少女綺想曲～Dream Battle
EXTT9=シンデレラケージ～Kagome-Kagome
EXTT10=狂気の瞳～Invisible Full Moon
EXTT11=ヴォヤージュ 1969
EXTT12=千年幻想郷～History of the Moon
EXTT13=ヴォヤージュ 1970
EXTT14=竹取飛翔～Lunatic Princess
EXTT15=月見草
EXTT16=Eternal Dream～幽玄の槭樹
EXTT17=東方妖怪小町
EXTT18=人形裁判～人の形弄びし少女
PLAYORDER=
